<?xml version="1.0" encoding="UTF-8" standalone="no"?><!DOCTYPE svg PUBLIC "-//W3C//DTD SVG 1.1//EN" "http://www.w3.org/Graphics/SVG/1.1/DTD/svg11.dtd"><svg width="100%" height="100%" viewBox="0 0 300 110" version="1.1" xmlns="http://www.w3.org/2000/svg" xmlns:xlink="http://www.w3.org/1999/xlink" xml:space="preserve" xmlns:serif="http://www.serif.com/" style="fill-rule:evenodd;clip-rule:evenodd;stroke-linecap:round;stroke-miterlimit:10;"><path d="M246.132,85.627l6.04,5.96l-5.961,6.04" style="fill:none;stroke:#a84988;stroke-width:4px;"/><path d="M38,93c0,0 188.715,-1.245 214.172,-1.413" style="fill:none;stroke:#a84988;stroke-width:4px;stroke-linejoin:round;stroke-miterlimit:1.5;"/><path d="M111.592,31.009l3.89,-1.693l1.693,3.89" style="fill:none;stroke:#a84988;stroke-width:2px;"/><path d="M53.474,91.612c18.795,-15.332 42.886,-14.28 62.008,-62.296" style="fill:none;stroke:#a84988;stroke-width:2px;stroke-linejoin:round;stroke-miterlimit:1.5;"/><path d="M82.854,41.335l2.757,-3.226l3.225,2.757" style="fill:none;stroke:#a84988;stroke-width:2px;"/><path d="M53.334,91.569c22.639,-14.266 34.618,-21.315 32.277,-53.46" style="fill:none;stroke:#a84988;stroke-width:2px;stroke-linejoin:round;stroke-miterlimit:1.5;"/><path d="M143.593,37.858l4.241,-0.129l0.129,4.241" style="fill:none;stroke:#a84988;stroke-width:2px;"/><path d="M53.39,91.612c15.771,-11.331 67.918,-26.193 94.444,-53.883" style="fill:none;stroke:#a84988;stroke-width:2px;stroke-linejoin:round;stroke-miterlimit:1.5;"/><path d="M181.773,63.065l3.662,2.143l-2.143,3.661" style="fill:none;stroke:#a84988;stroke-width:2px;"/><path d="M53.474,91.569c23.777,-13.366 74.325,-11.399 131.961,-26.361" style="fill:none;stroke:#a84988;stroke-width:2px;stroke-linejoin:round;stroke-miterlimit:1.5;"/><path d="M174.203,44.346l4.039,1.3l-1.3,4.038" style="fill:none;stroke:#a84988;stroke-width:2px;"/><path d="M53.474,91.612c19.763,-12.345 83.514,-25.001 124.768,-45.966" style="fill:none;stroke:#a84988;stroke-width:2px;stroke-linejoin:round;stroke-miterlimit:1.5;"/></svg>